<mxfile host="app.diagrams.net" modified="2021-05-27T14:25:31.424Z" agent="5.0 (Windows NT 10.0; Win64; x64) AppleWebKit/537.36 (KHTML, like Gecko) Chrome/90.0.4430.212 Safari/537.36" etag="bEXosXAVw6-zFcD3eBpr" version="14.7.2" type="github">
  <diagram id="ZUU_ORbdmvxoiWIRQ5e9" name="Page-1">
    <mxGraphModel dx="2370" dy="2439" grid="1" gridSize="10" guides="1" tooltips="1" connect="1" arrows="1" fold="1" page="1" pageScale="1" pageWidth="1654" pageHeight="1169" math="0" shadow="0">
      <root>
        <mxCell id="0" />
        <mxCell id="1" parent="0" />
        <mxCell id="TCAJJFYS9Wigu0wZESpd-49" style="edgeStyle=orthogonalEdgeStyle;rounded=0;orthogonalLoop=1;jettySize=auto;html=1;exitX=0.25;exitY=0;exitDx=0;exitDy=0;fontSize=12;" parent="1" source="TCAJJFYS9Wigu0wZESpd-2" edge="1">
          <mxGeometry relative="1" as="geometry">
            <mxPoint x="380" y="200" as="targetPoint" />
            <Array as="points">
              <mxPoint x="380" y="240" />
              <mxPoint x="380" y="200" />
            </Array>
          </mxGeometry>
        </mxCell>
        <mxCell id="TCAJJFYS9Wigu0wZESpd-2" value="" style="rounded=1;whiteSpace=wrap;html=1;fillColor=#f8cecc;strokeColor=#b85450;" parent="1" vertex="1">
          <mxGeometry x="340" y="240" width="120" height="1080" as="geometry" />
        </mxCell>
        <mxCell id="TCAJJFYS9Wigu0wZESpd-3" value="API &lt;br&gt;Gateway" style="text;html=1;strokeColor=none;fillColor=none;align=center;verticalAlign=middle;whiteSpace=wrap;rounded=0;" parent="1" vertex="1">
          <mxGeometry x="380" y="540" width="40" height="20" as="geometry" />
        </mxCell>
        <mxCell id="g6OtUyUmYMgXXQMBs5Dp-11" style="edgeStyle=orthogonalEdgeStyle;rounded=0;orthogonalLoop=1;jettySize=auto;html=1;exitX=0.5;exitY=0;exitDx=0;exitDy=0;entryX=0.5;entryY=1;entryDx=0;entryDy=0;" edge="1" parent="1" source="TCAJJFYS9Wigu0wZESpd-4" target="TCAJJFYS9Wigu0wZESpd-7">
          <mxGeometry relative="1" as="geometry" />
        </mxCell>
        <mxCell id="TCAJJFYS9Wigu0wZESpd-4" value="" style="rounded=1;whiteSpace=wrap;html=1;fillColor=#d5e8d4;strokeColor=#82b366;" parent="1" vertex="1">
          <mxGeometry x="160" y="555" width="120" height="60" as="geometry" />
        </mxCell>
        <mxCell id="TCAJJFYS9Wigu0wZESpd-17" style="edgeStyle=orthogonalEdgeStyle;rounded=0;orthogonalLoop=1;jettySize=auto;html=1;" parent="1" source="TCAJJFYS9Wigu0wZESpd-7" edge="1">
          <mxGeometry relative="1" as="geometry">
            <mxPoint x="340" y="384" as="targetPoint" />
            <Array as="points">
              <mxPoint x="340" y="384" />
            </Array>
          </mxGeometry>
        </mxCell>
        <mxCell id="TCAJJFYS9Wigu0wZESpd-7" value="" style="rounded=1;whiteSpace=wrap;html=1;fillColor=#d5e8d4;strokeColor=#82b366;" parent="1" vertex="1">
          <mxGeometry x="160" y="360" width="120" height="60" as="geometry" />
        </mxCell>
        <mxCell id="TCAJJFYS9Wigu0wZESpd-8" value="Nishtagram &lt;br&gt;UI" style="text;html=1;strokeColor=none;fillColor=none;align=center;verticalAlign=middle;whiteSpace=wrap;rounded=0;" parent="1" vertex="1">
          <mxGeometry x="200" y="380" width="40" height="20" as="geometry" />
        </mxCell>
        <mxCell id="TCAJJFYS9Wigu0wZESpd-18" value="HTTPS" style="text;html=1;strokeColor=none;fillColor=none;align=center;verticalAlign=middle;whiteSpace=wrap;rounded=0;" parent="1" vertex="1">
          <mxGeometry x="290" y="360" width="40" height="20" as="geometry" />
        </mxCell>
        <mxCell id="TCAJJFYS9Wigu0wZESpd-19" value="" style="rounded=1;whiteSpace=wrap;html=1;fillColor=#dae8fc;strokeColor=#6c8ebf;" parent="1" vertex="1">
          <mxGeometry x="540" y="240" width="120" height="60" as="geometry" />
        </mxCell>
        <mxCell id="TCAJJFYS9Wigu0wZESpd-21" value="" style="rounded=1;whiteSpace=wrap;html=1;fillColor=#dae8fc;strokeColor=#6c8ebf;" parent="1" vertex="1">
          <mxGeometry x="540" y="410" width="120" height="60" as="geometry" />
        </mxCell>
        <mxCell id="TCAJJFYS9Wigu0wZESpd-64" style="edgeStyle=orthogonalEdgeStyle;rounded=0;orthogonalLoop=1;jettySize=auto;html=1;exitX=0.865;exitY=1.001;exitDx=0;exitDy=0;entryX=0;entryY=0.5;entryDx=0;entryDy=0;entryPerimeter=0;fontSize=12;exitPerimeter=0;" parent="1" source="TCAJJFYS9Wigu0wZESpd-22" target="TCAJJFYS9Wigu0wZESpd-63" edge="1">
          <mxGeometry relative="1" as="geometry" />
        </mxCell>
        <mxCell id="TCAJJFYS9Wigu0wZESpd-22" value="" style="rounded=1;whiteSpace=wrap;html=1;fillColor=#dae8fc;strokeColor=#6c8ebf;" parent="1" vertex="1">
          <mxGeometry x="540" y="500" width="120" height="60" as="geometry" />
        </mxCell>
        <mxCell id="TCAJJFYS9Wigu0wZESpd-23" value="User service" style="text;html=1;strokeColor=none;fillColor=none;align=center;verticalAlign=middle;whiteSpace=wrap;rounded=0;" parent="1" vertex="1">
          <mxGeometry x="580" y="260" width="40" height="20" as="geometry" />
        </mxCell>
        <mxCell id="TCAJJFYS9Wigu0wZESpd-27" value="Post service" style="text;html=1;strokeColor=none;fillColor=none;align=center;verticalAlign=middle;whiteSpace=wrap;rounded=0;fontSize=12;" parent="1" vertex="1">
          <mxGeometry x="580" y="430" width="40" height="20" as="geometry" />
        </mxCell>
        <mxCell id="TCAJJFYS9Wigu0wZESpd-28" value="Story service" style="text;html=1;strokeColor=none;fillColor=none;align=center;verticalAlign=middle;whiteSpace=wrap;rounded=0;fontSize=12;" parent="1" vertex="1">
          <mxGeometry x="580" y="520" width="40" height="20" as="geometry" />
        </mxCell>
        <mxCell id="tBfZVFhnJpXhr88LQR21-14" style="edgeStyle=orthogonalEdgeStyle;rounded=0;orthogonalLoop=1;jettySize=auto;html=1;exitX=0.927;exitY=0.986;exitDx=0;exitDy=0;entryX=0.07;entryY=0.4;entryDx=0;entryDy=0;entryPerimeter=0;exitPerimeter=0;" parent="1" source="TCAJJFYS9Wigu0wZESpd-31" edge="1" target="tBfZVFhnJpXhr88LQR21-8">
          <mxGeometry relative="1" as="geometry">
            <mxPoint x="632" y="750" as="sourcePoint" />
            <mxPoint x="794.8" y="799.76" as="targetPoint" />
            <Array as="points">
              <mxPoint x="620" y="749" />
              <mxPoint x="620" y="830" />
              <mxPoint x="1148" y="830" />
            </Array>
          </mxGeometry>
        </mxCell>
        <mxCell id="g6OtUyUmYMgXXQMBs5Dp-16" style="edgeStyle=orthogonalEdgeStyle;rounded=0;orthogonalLoop=1;jettySize=auto;html=1;exitX=0.75;exitY=1;exitDx=0;exitDy=0;" edge="1" parent="1" source="TCAJJFYS9Wigu0wZESpd-31" target="g6OtUyUmYMgXXQMBs5Dp-15">
          <mxGeometry relative="1" as="geometry" />
        </mxCell>
        <mxCell id="TCAJJFYS9Wigu0wZESpd-31" value="" style="rounded=1;whiteSpace=wrap;html=1;fillColor=#dae8fc;strokeColor=#6c8ebf;" parent="1" vertex="1">
          <mxGeometry x="540" y="690" width="120" height="60" as="geometry" />
        </mxCell>
        <mxCell id="TCAJJFYS9Wigu0wZESpd-32" value="Notification service" style="text;html=1;strokeColor=none;fillColor=none;align=center;verticalAlign=middle;whiteSpace=wrap;rounded=0;fontSize=12;" parent="1" vertex="1">
          <mxGeometry x="580" y="710" width="40" height="20" as="geometry" />
        </mxCell>
        <mxCell id="tBfZVFhnJpXhr88LQR21-4" style="edgeStyle=orthogonalEdgeStyle;rounded=0;orthogonalLoop=1;jettySize=auto;html=1;exitX=0.75;exitY=1;exitDx=0;exitDy=0;entryX=0;entryY=0.5;entryDx=0;entryDy=0;entryPerimeter=0;" parent="1" source="TCAJJFYS9Wigu0wZESpd-35" target="tBfZVFhnJpXhr88LQR21-3" edge="1">
          <mxGeometry relative="1" as="geometry">
            <Array as="points">
              <mxPoint x="640" y="915" />
              <mxPoint x="640" y="985" />
            </Array>
          </mxGeometry>
        </mxCell>
        <mxCell id="TCAJJFYS9Wigu0wZESpd-35" value="" style="rounded=1;whiteSpace=wrap;html=1;fillColor=#dae8fc;strokeColor=#6c8ebf;" parent="1" vertex="1">
          <mxGeometry x="540" y="855" width="120" height="60" as="geometry" />
        </mxCell>
        <mxCell id="TCAJJFYS9Wigu0wZESpd-36" value="Follow service" style="text;html=1;strokeColor=none;fillColor=none;align=center;verticalAlign=middle;whiteSpace=wrap;rounded=0;fontSize=12;" parent="1" vertex="1">
          <mxGeometry x="580" y="875" width="40" height="20" as="geometry" />
        </mxCell>
        <mxCell id="g6OtUyUmYMgXXQMBs5Dp-18" style="edgeStyle=orthogonalEdgeStyle;rounded=0;orthogonalLoop=1;jettySize=auto;html=1;exitX=0.5;exitY=1;exitDx=0;exitDy=0;entryX=0;entryY=0.75;entryDx=0;entryDy=0;entryPerimeter=0;" edge="1" parent="1" source="TCAJJFYS9Wigu0wZESpd-37" target="g6OtUyUmYMgXXQMBs5Dp-17">
          <mxGeometry relative="1" as="geometry" />
        </mxCell>
        <mxCell id="TCAJJFYS9Wigu0wZESpd-37" value="" style="rounded=1;whiteSpace=wrap;html=1;fillColor=#dae8fc;strokeColor=#6c8ebf;" parent="1" vertex="1">
          <mxGeometry x="540" y="1040" width="120" height="60" as="geometry" />
        </mxCell>
        <mxCell id="TCAJJFYS9Wigu0wZESpd-38" value="Message service" style="text;html=1;strokeColor=none;fillColor=none;align=center;verticalAlign=middle;whiteSpace=wrap;rounded=0;fontSize=12;" parent="1" vertex="1">
          <mxGeometry x="580" y="1060" width="40" height="20" as="geometry" />
        </mxCell>
        <mxCell id="tBfZVFhnJpXhr88LQR21-13" style="edgeStyle=orthogonalEdgeStyle;rounded=0;orthogonalLoop=1;jettySize=auto;html=1;exitX=0.75;exitY=0;exitDx=0;exitDy=0;entryX=0;entryY=0.5;entryDx=0;entryDy=0;entryPerimeter=0;" parent="1" source="TCAJJFYS9Wigu0wZESpd-39" target="tBfZVFhnJpXhr88LQR21-12" edge="1">
          <mxGeometry relative="1" as="geometry">
            <Array as="points">
              <mxPoint x="440" y="140" />
              <mxPoint x="440" y="85" />
            </Array>
          </mxGeometry>
        </mxCell>
        <mxCell id="TCAJJFYS9Wigu0wZESpd-39" value="" style="rounded=1;whiteSpace=wrap;html=1;fontSize=12;fillColor=#dae8fc;strokeColor=#6c8ebf;" parent="1" vertex="1">
          <mxGeometry x="340" y="140" width="120" height="60" as="geometry" />
        </mxCell>
        <mxCell id="TCAJJFYS9Wigu0wZESpd-40" value="&lt;div&gt;Auth&lt;/div&gt;&lt;div&gt;service&lt;br&gt;&lt;/div&gt;" style="text;html=1;strokeColor=none;fillColor=none;align=center;verticalAlign=middle;whiteSpace=wrap;rounded=0;fontSize=12;" parent="1" vertex="1">
          <mxGeometry x="380" y="160" width="40" height="20" as="geometry" />
        </mxCell>
        <mxCell id="TCAJJFYS9Wigu0wZESpd-42" value="" style="endArrow=classic;html=1;fontSize=12;entryX=0;entryY=0.5;entryDx=0;entryDy=0;" parent="1" target="TCAJJFYS9Wigu0wZESpd-19" edge="1">
          <mxGeometry width="50" height="50" relative="1" as="geometry">
            <mxPoint x="461" y="270" as="sourcePoint" />
            <mxPoint x="520" y="250" as="targetPoint" />
          </mxGeometry>
        </mxCell>
        <mxCell id="TCAJJFYS9Wigu0wZESpd-44" value="" style="endArrow=classic;html=1;fontSize=12;exitX=1.007;exitY=0.049;exitDx=0;exitDy=0;exitPerimeter=0;entryX=0;entryY=0.5;entryDx=0;entryDy=0;" parent="1" edge="1">
          <mxGeometry width="50" height="50" relative="1" as="geometry">
            <mxPoint x="460" y="439.86" as="sourcePoint" />
            <mxPoint x="539.16" y="439.97" as="targetPoint" />
          </mxGeometry>
        </mxCell>
        <mxCell id="TCAJJFYS9Wigu0wZESpd-45" value="" style="endArrow=classic;html=1;fontSize=12;exitX=1.007;exitY=0.049;exitDx=0;exitDy=0;exitPerimeter=0;entryX=0;entryY=0.5;entryDx=0;entryDy=0;" parent="1" edge="1">
          <mxGeometry width="50" height="50" relative="1" as="geometry">
            <mxPoint x="460" y="529.86" as="sourcePoint" />
            <mxPoint x="539.16" y="529.97" as="targetPoint" />
          </mxGeometry>
        </mxCell>
        <mxCell id="TCAJJFYS9Wigu0wZESpd-46" value="" style="endArrow=classic;html=1;fontSize=12;exitX=1.007;exitY=0.049;exitDx=0;exitDy=0;exitPerimeter=0;entryX=0;entryY=0.5;entryDx=0;entryDy=0;" parent="1" edge="1">
          <mxGeometry width="50" height="50" relative="1" as="geometry">
            <mxPoint x="460" y="719.86" as="sourcePoint" />
            <mxPoint x="539.16" y="719.97" as="targetPoint" />
          </mxGeometry>
        </mxCell>
        <mxCell id="TCAJJFYS9Wigu0wZESpd-47" value="" style="endArrow=classic;html=1;fontSize=12;exitX=1.007;exitY=0.049;exitDx=0;exitDy=0;exitPerimeter=0;entryX=0;entryY=0.5;entryDx=0;entryDy=0;" parent="1" edge="1">
          <mxGeometry width="50" height="50" relative="1" as="geometry">
            <mxPoint x="460" y="884.86" as="sourcePoint" />
            <mxPoint x="539.16" y="884.97" as="targetPoint" />
          </mxGeometry>
        </mxCell>
        <mxCell id="TCAJJFYS9Wigu0wZESpd-48" value="" style="endArrow=classic;html=1;fontSize=12;exitX=1.007;exitY=0.049;exitDx=0;exitDy=0;exitPerimeter=0;entryX=0;entryY=0.5;entryDx=0;entryDy=0;" parent="1" edge="1">
          <mxGeometry width="50" height="50" relative="1" as="geometry">
            <mxPoint x="460" y="1069.8600000000001" as="sourcePoint" />
            <mxPoint x="539.16" y="1069.97" as="targetPoint" />
          </mxGeometry>
        </mxCell>
        <object placeholders="1" c4Type="Database" c4Technology="MongoDB" c4Description="User database" label="%c4Type%&lt;div&gt;[Container:&amp;nbsp;%c4Technology%]&lt;/div&gt;&lt;br&gt;&lt;div&gt;%c4Description%&lt;/div&gt;" id="TCAJJFYS9Wigu0wZESpd-52">
          <mxCell style="shape=cylinder;whiteSpace=wrap;html=1;boundedLbl=1;rounded=0;labelBackgroundColor=none;fillColor=#438DD5;fontSize=9;fontColor=#ffffff;align=center;strokeColor=#3C7FC0;metaEdit=1;points=[[0.5,0,0],[1,0.25,0],[1,0.5,0],[1,0.75,0],[0.5,1,0],[0,0.75,0],[0,0.5,0],[0,0.25,0]];metaData={&quot;c4Type&quot;:{&quot;editable&quot;:false}};" parent="1" vertex="1">
            <mxGeometry x="790" y="235" width="110" height="70" as="geometry" />
          </mxCell>
        </object>
        <object placeholders="1" c4Type="Database" c4Technology="RedisDB" c4Description="Redis" label="%c4Type%&lt;div&gt;[Container:&amp;nbsp;%c4Technology%]&lt;/div&gt;&lt;br&gt;&lt;div&gt;%c4Description%&lt;/div&gt;" id="TCAJJFYS9Wigu0wZESpd-54">
          <mxCell style="shape=cylinder;whiteSpace=wrap;html=1;boundedLbl=1;rounded=0;labelBackgroundColor=none;fillColor=#438DD5;fontSize=9;fontColor=#ffffff;align=center;strokeColor=#3C7FC0;metaEdit=1;points=[[0.5,0,0],[1,0.25,0],[1,0.5,0],[1,0.75,0],[0.5,1,0],[0,0.75,0],[0,0.5,0],[0,0.25,0]];metaData={&quot;c4Type&quot;:{&quot;editable&quot;:false}};" parent="1" vertex="1">
            <mxGeometry x="540" y="140" width="110" height="60" as="geometry" />
          </mxCell>
        </object>
        <mxCell id="TCAJJFYS9Wigu0wZESpd-55" value="" style="endArrow=classic;html=1;fontSize=12;exitX=1.007;exitY=0.049;exitDx=0;exitDy=0;exitPerimeter=0;entryX=0;entryY=0.5;entryDx=0;entryDy=0;" parent="1" edge="1">
          <mxGeometry width="50" height="50" relative="1" as="geometry">
            <mxPoint x="460.8399999999999" y="169.70999999999998" as="sourcePoint" />
            <mxPoint x="540" y="169.82" as="targetPoint" />
          </mxGeometry>
        </mxCell>
        <mxCell id="TCAJJFYS9Wigu0wZESpd-56" value="" style="endArrow=classic;html=1;fontSize=12;exitX=1.007;exitY=0.049;exitDx=0;exitDy=0;exitPerimeter=0;entryX=0;entryY=0.5;entryDx=0;entryDy=0;entryPerimeter=0;" parent="1" target="TCAJJFYS9Wigu0wZESpd-52" edge="1">
          <mxGeometry width="50" height="50" relative="1" as="geometry">
            <mxPoint x="660.0000000000001" y="269.65999999999997" as="sourcePoint" />
            <mxPoint x="739.16" y="269.77" as="targetPoint" />
          </mxGeometry>
        </mxCell>
        <object placeholders="1" c4Type="Database" c4Technology="Cassandra" c4Description="Post database" label="%c4Type%&lt;div&gt;[Container:&amp;nbsp;%c4Technology%]&lt;/div&gt;&lt;br&gt;&lt;div&gt;%c4Description%&lt;/div&gt;" id="TCAJJFYS9Wigu0wZESpd-57">
          <mxCell style="shape=cylinder;whiteSpace=wrap;html=1;boundedLbl=1;rounded=0;labelBackgroundColor=none;fillColor=#438DD5;fontSize=9;fontColor=#ffffff;align=center;strokeColor=#3C7FC0;metaEdit=1;points=[[0.5,0,0],[1,0.25,0],[1,0.5,0],[1,0.75,0],[0.5,1,0],[0,0.75,0],[0,0.5,0],[0,0.25,0]];metaData={&quot;c4Type&quot;:{&quot;editable&quot;:false}};" parent="1" vertex="1">
            <mxGeometry x="790" y="410" width="110" height="70" as="geometry" />
          </mxCell>
        </object>
        <mxCell id="TCAJJFYS9Wigu0wZESpd-58" value="" style="endArrow=classic;html=1;fontSize=12;exitX=1.007;exitY=0.049;exitDx=0;exitDy=0;exitPerimeter=0;entryX=0;entryY=0.5;entryDx=0;entryDy=0;entryPerimeter=0;" parent="1" edge="1">
          <mxGeometry width="50" height="50" relative="1" as="geometry">
            <mxPoint x="660" y="439.5799999999999" as="sourcePoint" />
            <mxPoint x="790" y="439.91999999999996" as="targetPoint" />
          </mxGeometry>
        </mxCell>
        <object placeholders="1" c4Type="Database" c4Technology="Cassandra" c4Description="Story database" label="%c4Type%&lt;div&gt;[Container:&amp;nbsp;%c4Technology%]&lt;/div&gt;&lt;br&gt;&lt;div&gt;%c4Description%&lt;/div&gt;" id="TCAJJFYS9Wigu0wZESpd-61">
          <mxCell style="shape=cylinder;whiteSpace=wrap;html=1;boundedLbl=1;rounded=0;labelBackgroundColor=none;fillColor=#438DD5;fontSize=9;fontColor=#ffffff;align=center;strokeColor=#3C7FC0;metaEdit=1;points=[[0.5,0,0],[1,0.25,0],[1,0.5,0],[1,0.75,0],[0.5,1,0],[0,0.75,0],[0,0.5,0],[0,0.25,0]];metaData={&quot;c4Type&quot;:{&quot;editable&quot;:false}};" parent="1" vertex="1">
            <mxGeometry x="790" y="500" width="110" height="70" as="geometry" />
          </mxCell>
        </object>
        <mxCell id="TCAJJFYS9Wigu0wZESpd-62" value="" style="endArrow=classic;html=1;fontSize=12;exitX=1.007;exitY=0.049;exitDx=0;exitDy=0;exitPerimeter=0;entryX=0;entryY=0.5;entryDx=0;entryDy=0;entryPerimeter=0;" parent="1" edge="1">
          <mxGeometry width="50" height="50" relative="1" as="geometry">
            <mxPoint x="660" y="534.5799999999998" as="sourcePoint" />
            <mxPoint x="790" y="534.92" as="targetPoint" />
          </mxGeometry>
        </mxCell>
        <object placeholders="1" c4Type="Database" c4Technology="Consul" c4Description="Story database" label="%c4Type%&lt;div&gt;[Container:&amp;nbsp;%c4Technology%]&lt;/div&gt;&lt;br&gt;&lt;div&gt;%c4Description%&lt;/div&gt;" id="TCAJJFYS9Wigu0wZESpd-63">
          <mxCell style="shape=cylinder;whiteSpace=wrap;html=1;boundedLbl=1;rounded=0;labelBackgroundColor=none;fillColor=#438DD5;fontSize=9;fontColor=#ffffff;align=center;strokeColor=#3C7FC0;metaEdit=1;points=[[0.5,0,0],[1,0.25,0],[1,0.5,0],[1,0.75,0],[0.5,1,0],[0,0.75,0],[0,0.5,0],[0,0.25,0]];metaData={&quot;c4Type&quot;:{&quot;editable&quot;:false}};" parent="1" vertex="1">
            <mxGeometry x="790" y="585" width="110" height="70" as="geometry" />
          </mxCell>
        </object>
        <mxCell id="TCAJJFYS9Wigu0wZESpd-68" value="" style="endArrow=classic;html=1;fontSize=12;exitX=1.007;exitY=0.049;exitDx=0;exitDy=0;exitPerimeter=0;entryX=0;entryY=0.5;entryDx=0;entryDy=0;entryPerimeter=0;" parent="1" edge="1">
          <mxGeometry width="50" height="50" relative="1" as="geometry">
            <mxPoint x="660" y="884.4099999999999" as="sourcePoint" />
            <mxPoint x="790" y="884.7499999999998" as="targetPoint" />
          </mxGeometry>
        </mxCell>
        <object placeholders="1" c4Type="Database" c4Technology="Neo4j Graph" c4Description="Follow graph" label="%c4Type%&lt;div&gt;[Container:&amp;nbsp;%c4Technology%]&lt;/div&gt;&lt;br&gt;&lt;div&gt;%c4Description%&lt;/div&gt;" id="tBfZVFhnJpXhr88LQR21-2">
          <mxCell style="shape=cylinder;whiteSpace=wrap;html=1;boundedLbl=1;rounded=0;labelBackgroundColor=none;fillColor=#438DD5;fontSize=9;fontColor=#ffffff;align=center;strokeColor=#3C7FC0;metaEdit=1;points=[[0.5,0,0],[1,0.25,0],[1,0.5,0],[1,0.75,0],[0.5,1,0],[0,0.75,0],[0,0.5,0],[0,0.25,0]];metaData={&quot;c4Type&quot;:{&quot;editable&quot;:false}};" parent="1" vertex="1">
            <mxGeometry x="790" y="850" width="110" height="70" as="geometry" />
          </mxCell>
        </object>
        <object placeholders="1" c4Type="Database" c4Technology="MongoDB" c4Description="Follow database" label="%c4Type%&lt;div&gt;[Container:&amp;nbsp;%c4Technology%]&lt;/div&gt;&lt;br&gt;&lt;div&gt;%c4Description%&lt;/div&gt;" id="tBfZVFhnJpXhr88LQR21-3">
          <mxCell style="shape=cylinder;whiteSpace=wrap;html=1;boundedLbl=1;rounded=0;labelBackgroundColor=none;fillColor=#438DD5;fontSize=9;fontColor=#ffffff;align=center;strokeColor=#3C7FC0;metaEdit=1;points=[[0.5,0,0],[1,0.25,0],[1,0.5,0],[1,0.75,0],[0.5,1,0],[0,0.75,0],[0,0.5,0],[0,0.25,0]];metaData={&quot;c4Type&quot;:{&quot;editable&quot;:false}};" parent="1" vertex="1">
            <mxGeometry x="790" y="950" width="110" height="70" as="geometry" />
          </mxCell>
        </object>
        <object placeholders="1" c4Type="Database" c4Technology="Cassandra" c4Description="Notification database" label="%c4Type%&lt;div&gt;[Container:&amp;nbsp;%c4Technology%]&lt;/div&gt;&lt;br&gt;&lt;div&gt;%c4Description%&lt;/div&gt;" id="tBfZVFhnJpXhr88LQR21-5">
          <mxCell style="shape=cylinder;whiteSpace=wrap;html=1;boundedLbl=1;rounded=0;labelBackgroundColor=none;fillColor=#438DD5;fontSize=9;fontColor=#ffffff;align=center;strokeColor=#3C7FC0;metaEdit=1;points=[[0.5,0,0],[1,0.25,0],[1,0.5,0],[1,0.75,0],[0.5,1,0],[0,0.75,0],[0,0.5,0],[0,0.25,0]];metaData={&quot;c4Type&quot;:{&quot;editable&quot;:false}};" parent="1" vertex="1">
            <mxGeometry x="790" y="690" width="110" height="70" as="geometry" />
          </mxCell>
        </object>
        <mxCell id="tBfZVFhnJpXhr88LQR21-7" value="" style="endArrow=classic;html=1;fontSize=12;exitX=1.007;exitY=0.049;exitDx=0;exitDy=0;exitPerimeter=0;entryX=0;entryY=0.5;entryDx=0;entryDy=0;entryPerimeter=0;" parent="1" edge="1">
          <mxGeometry width="50" height="50" relative="1" as="geometry">
            <mxPoint x="660" y="719.29" as="sourcePoint" />
            <mxPoint x="790" y="719.6300000000001" as="targetPoint" />
          </mxGeometry>
        </mxCell>
        <mxCell id="g6OtUyUmYMgXXQMBs5Dp-8" style="edgeStyle=orthogonalEdgeStyle;rounded=0;orthogonalLoop=1;jettySize=auto;html=1;entryX=0.5;entryY=0;entryDx=0;entryDy=0;exitX=0.5;exitY=0;exitDx=0;exitDy=0;" edge="1" parent="1" source="tBfZVFhnJpXhr88LQR21-21" target="TCAJJFYS9Wigu0wZESpd-7">
          <mxGeometry relative="1" as="geometry">
            <mxPoint x="220" y="350" as="targetPoint" />
            <Array as="points">
              <mxPoint x="1200" />
              <mxPoint x="220" />
            </Array>
          </mxGeometry>
        </mxCell>
        <mxCell id="tBfZVFhnJpXhr88LQR21-8" value="" style="ellipse;shape=cloud;whiteSpace=wrap;html=1;" parent="1" vertex="1">
          <mxGeometry x="1140" y="795" width="120" height="60" as="geometry" />
        </mxCell>
        <object placeholders="1" c4Type="Database" c4Technology="MongoDB" c4Description="Auth database" label="%c4Type%&lt;div&gt;[Container:&amp;nbsp;%c4Technology%]&lt;/div&gt;&lt;br&gt;&lt;div&gt;%c4Description%&lt;/div&gt;" id="tBfZVFhnJpXhr88LQR21-12">
          <mxCell style="shape=cylinder;whiteSpace=wrap;html=1;boundedLbl=1;rounded=0;labelBackgroundColor=none;fillColor=#438DD5;fontSize=9;fontColor=#ffffff;align=center;strokeColor=#3C7FC0;metaEdit=1;points=[[0.5,0,0],[1,0.25,0],[1,0.5,0],[1,0.75,0],[0.5,1,0],[0,0.75,0],[0,0.5,0],[0,0.25,0]];metaData={&quot;c4Type&quot;:{&quot;editable&quot;:false}};" parent="1" vertex="1">
            <mxGeometry x="540" y="50" width="110" height="70" as="geometry" />
          </mxCell>
        </object>
        <mxCell id="tBfZVFhnJpXhr88LQR21-15" value="Push notification" style="text;html=1;strokeColor=none;fillColor=none;align=center;verticalAlign=middle;whiteSpace=wrap;rounded=0;" parent="1" vertex="1">
          <mxGeometry x="742.5" y="810" width="205" height="20" as="geometry" />
        </mxCell>
        <object placeholders="1" c4Type="Database" c4Technology="Cassandra" c4Description="Message database" label="%c4Type%&lt;div&gt;[Container:&amp;nbsp;%c4Technology%]&lt;/div&gt;&lt;br&gt;&lt;div&gt;%c4Description%&lt;/div&gt;" id="tBfZVFhnJpXhr88LQR21-16">
          <mxCell style="shape=cylinder;whiteSpace=wrap;html=1;boundedLbl=1;rounded=0;labelBackgroundColor=none;fillColor=#438DD5;fontSize=9;fontColor=#ffffff;align=center;strokeColor=#3C7FC0;metaEdit=1;points=[[0.5,0,0],[1,0.25,0],[1,0.5,0],[1,0.75,0],[0.5,1,0],[0,0.75,0],[0,0.5,0],[0,0.25,0]];metaData={&quot;c4Type&quot;:{&quot;editable&quot;:false}};" parent="1" vertex="1">
            <mxGeometry x="790" y="1050" width="110" height="70" as="geometry" />
          </mxCell>
        </object>
        <mxCell id="tBfZVFhnJpXhr88LQR21-18" value="" style="endArrow=classic;html=1;fontSize=12;exitX=1.007;exitY=0.049;exitDx=0;exitDy=0;exitPerimeter=0;entryX=0;entryY=0.5;entryDx=0;entryDy=0;entryPerimeter=0;" parent="1" edge="1">
          <mxGeometry width="50" height="50" relative="1" as="geometry">
            <mxPoint x="660" y="1080" as="sourcePoint" />
            <mxPoint x="790" y="1080.3400000000001" as="targetPoint" />
          </mxGeometry>
        </mxCell>
        <mxCell id="tBfZVFhnJpXhr88LQR21-21" value="Message broker" style="text;html=1;strokeColor=none;fillColor=none;align=center;verticalAlign=middle;whiteSpace=wrap;rounded=0;" parent="1" vertex="1">
          <mxGeometry x="1160" y="815" width="80" height="20" as="geometry" />
        </mxCell>
        <mxCell id="tBfZVFhnJpXhr88LQR21-23" value="HTTPS" style="text;html=1;strokeColor=none;fillColor=none;align=center;verticalAlign=middle;whiteSpace=wrap;rounded=0;" parent="1" vertex="1">
          <mxGeometry x="480" y="250" width="40" height="20" as="geometry" />
        </mxCell>
        <mxCell id="tBfZVFhnJpXhr88LQR21-28" value="HTTPS" style="text;html=1;strokeColor=none;fillColor=none;align=center;verticalAlign=middle;whiteSpace=wrap;rounded=0;" parent="1" vertex="1">
          <mxGeometry x="480" y="420" width="40" height="20" as="geometry" />
        </mxCell>
        <mxCell id="tBfZVFhnJpXhr88LQR21-29" value="HTTPS" style="text;html=1;strokeColor=none;fillColor=none;align=center;verticalAlign=middle;whiteSpace=wrap;rounded=0;" parent="1" vertex="1">
          <mxGeometry x="480" y="510" width="40" height="20" as="geometry" />
        </mxCell>
        <mxCell id="tBfZVFhnJpXhr88LQR21-30" value="HTTPS" style="text;html=1;strokeColor=none;fillColor=none;align=center;verticalAlign=middle;whiteSpace=wrap;rounded=0;" parent="1" vertex="1">
          <mxGeometry x="480" y="700" width="40" height="20" as="geometry" />
        </mxCell>
        <mxCell id="tBfZVFhnJpXhr88LQR21-31" value="HTTPS" style="text;html=1;strokeColor=none;fillColor=none;align=center;verticalAlign=middle;whiteSpace=wrap;rounded=0;" parent="1" vertex="1">
          <mxGeometry x="480" y="860" width="40" height="20" as="geometry" />
        </mxCell>
        <mxCell id="tBfZVFhnJpXhr88LQR21-32" value="HTTPS" style="text;html=1;strokeColor=none;fillColor=none;align=center;verticalAlign=middle;whiteSpace=wrap;rounded=0;" parent="1" vertex="1">
          <mxGeometry x="480" y="1050" width="40" height="20" as="geometry" />
        </mxCell>
        <mxCell id="tBfZVFhnJpXhr88LQR21-33" value="HTTPS" style="text;html=1;strokeColor=none;fillColor=none;align=center;verticalAlign=middle;whiteSpace=wrap;rounded=0;" parent="1" vertex="1">
          <mxGeometry x="340" y="215" width="40" height="20" as="geometry" />
        </mxCell>
        <mxCell id="qoyNyBYoRdIygSQEXisO-11" value="" style="edgeStyle=orthogonalEdgeStyle;rounded=0;orthogonalLoop=1;jettySize=auto;html=1;" parent="1" source="qoyNyBYoRdIygSQEXisO-2" target="qoyNyBYoRdIygSQEXisO-3" edge="1">
          <mxGeometry relative="1" as="geometry" />
        </mxCell>
        <mxCell id="qoyNyBYoRdIygSQEXisO-2" value="Browser&lt;span style=&quot;color: rgba(0 , 0 , 0 , 0) ; font-family: monospace ; font-size: 0px&quot;&gt;%3CmxGraphModel%3E%3Croot%3E%3CmxCell%20id%3D%220%22%2F%3E%3CmxCell%20id%3D%221%22%20parent%3D%220%22%2F%3E%3CmxCell%20id%3D%222%22%20value%3D%22consumes%22%20style%3D%22text%3Bhtml%3D1%3BstrokeColor%3Dnone%3BfillColor%3Dnone%3Balign%3Dcenter%3BverticalAlign%3Dmiddle%3BwhiteSpace%3Dwrap%3Brounded%3D0%3B%22%20vertex%3D%221%22%20parent%3D%221%22%3E%3CmxGeometry%20x%3D%22230%22%20y%3D%22230%22%20width%3D%2240%22%20height%3D%2220%22%20as%3D%22geometry%22%2F%3E%3C%2FmxCell%3E%3C%2Froot%3E%3C%2FmxGraphModel%3E&lt;/span&gt;" style="rounded=1;whiteSpace=wrap;html=1;fillColor=#d5e8d4;strokeColor=#82b366;" parent="1" vertex="1">
          <mxGeometry x="140" y="1590" width="120" height="60" as="geometry" />
        </mxCell>
        <mxCell id="qoyNyBYoRdIygSQEXisO-8" style="edgeStyle=orthogonalEdgeStyle;rounded=0;orthogonalLoop=1;jettySize=auto;html=1;exitX=1;exitY=0.5;exitDx=0;exitDy=0;entryX=0;entryY=0.5;entryDx=0;entryDy=0;" parent="1" source="qoyNyBYoRdIygSQEXisO-3" target="qoyNyBYoRdIygSQEXisO-4" edge="1">
          <mxGeometry relative="1" as="geometry" />
        </mxCell>
        <mxCell id="qoyNyBYoRdIygSQEXisO-3" value="Web Shop UI" style="rounded=1;whiteSpace=wrap;html=1;fillColor=#d5e8d4;strokeColor=#82b366;" parent="1" vertex="1">
          <mxGeometry x="140" y="1466" width="120" height="60" as="geometry" />
        </mxCell>
        <mxCell id="qoyNyBYoRdIygSQEXisO-9" style="edgeStyle=orthogonalEdgeStyle;rounded=0;orthogonalLoop=1;jettySize=auto;html=1;exitX=1;exitY=0.5;exitDx=0;exitDy=0;entryX=0;entryY=0.5;entryDx=0;entryDy=0;entryPerimeter=0;" parent="1" source="qoyNyBYoRdIygSQEXisO-4" target="qoyNyBYoRdIygSQEXisO-6" edge="1">
          <mxGeometry relative="1" as="geometry" />
        </mxCell>
        <mxCell id="g6OtUyUmYMgXXQMBs5Dp-20" style="edgeStyle=orthogonalEdgeStyle;rounded=0;orthogonalLoop=1;jettySize=auto;html=1;exitX=0.5;exitY=0;exitDx=0;exitDy=0;" edge="1" parent="1" source="qoyNyBYoRdIygSQEXisO-4" target="TCAJJFYS9Wigu0wZESpd-2">
          <mxGeometry relative="1" as="geometry" />
        </mxCell>
        <mxCell id="qoyNyBYoRdIygSQEXisO-4" value="Web Shop Backend" style="rounded=1;whiteSpace=wrap;html=1;fillColor=#dae8fc;strokeColor=#6c8ebf;" parent="1" vertex="1">
          <mxGeometry x="440" y="1466" width="120" height="60" as="geometry" />
        </mxCell>
        <object placeholders="1" c4Type="Database" c4Technology="PostgreSQL" c4Description="Web Shop Database" label="%c4Type%&lt;div&gt;[Container:&amp;nbsp;%c4Technology%]&lt;/div&gt;&lt;br&gt;&lt;div&gt;%c4Description%&lt;/div&gt;" id="qoyNyBYoRdIygSQEXisO-6">
          <mxCell style="shape=cylinder;whiteSpace=wrap;html=1;boundedLbl=1;rounded=0;labelBackgroundColor=none;fillColor=#438DD5;fontSize=9;fontColor=#ffffff;align=center;strokeColor=#3C7FC0;metaEdit=1;points=[[0.5,0,0],[1,0.25,0],[1,0.5,0],[1,0.75,0],[0.5,1,0],[0,0.75,0],[0,0.5,0],[0,0.25,0]];metaData={&quot;c4Type&quot;:{&quot;editable&quot;:false}};" parent="1" vertex="1">
            <mxGeometry x="750" y="1461" width="110" height="70" as="geometry" />
          </mxCell>
        </object>
        <mxCell id="qoyNyBYoRdIygSQEXisO-12" value="HTTPS" style="text;html=1;strokeColor=none;fillColor=none;align=center;verticalAlign=middle;whiteSpace=wrap;rounded=0;" parent="1" vertex="1">
          <mxGeometry x="430" y="1370" width="40" height="20" as="geometry" />
        </mxCell>
        <mxCell id="g6OtUyUmYMgXXQMBs5Dp-3" style="edgeStyle=orthogonalEdgeStyle;rounded=0;orthogonalLoop=1;jettySize=auto;html=1;exitX=1;exitY=0.5;exitDx=0;exitDy=0;entryX=0;entryY=0.5;entryDx=0;entryDy=0;entryPerimeter=0;" edge="1" parent="1" source="g6OtUyUmYMgXXQMBs5Dp-1" target="g6OtUyUmYMgXXQMBs5Dp-2">
          <mxGeometry relative="1" as="geometry" />
        </mxCell>
        <mxCell id="g6OtUyUmYMgXXQMBs5Dp-1" value="AdService&lt;br&gt;" style="rounded=1;whiteSpace=wrap;html=1;fillColor=#dae8fc;strokeColor=#6c8ebf;" vertex="1" parent="1">
          <mxGeometry x="539" y="330" width="120" height="60" as="geometry" />
        </mxCell>
        <object placeholders="1" c4Type="Database" c4Technology="Cassandra" c4Description="Post database" label="%c4Type%&lt;div&gt;[Container:&amp;nbsp;%c4Technology%]&lt;/div&gt;&lt;br&gt;&lt;div&gt;%c4Description%&lt;/div&gt;" id="g6OtUyUmYMgXXQMBs5Dp-2">
          <mxCell style="shape=cylinder;whiteSpace=wrap;html=1;boundedLbl=1;rounded=0;labelBackgroundColor=none;fillColor=#438DD5;fontSize=9;fontColor=#ffffff;align=center;strokeColor=#3C7FC0;metaEdit=1;points=[[0.5,0,0],[1,0.25,0],[1,0.5,0],[1,0.75,0],[0.5,1,0],[0,0.75,0],[0,0.5,0],[0,0.25,0]];metaData={&quot;c4Type&quot;:{&quot;editable&quot;:false}};" vertex="1" parent="1">
            <mxGeometry x="790" y="325" width="110" height="70" as="geometry" />
          </mxCell>
        </object>
        <mxCell id="g6OtUyUmYMgXXQMBs5Dp-4" value="" style="endArrow=classic;html=1;fontSize=12;exitX=1.007;exitY=0.049;exitDx=0;exitDy=0;exitPerimeter=0;entryX=0;entryY=0.5;entryDx=0;entryDy=0;" edge="1" parent="1">
          <mxGeometry width="50" height="50" relative="1" as="geometry">
            <mxPoint x="459.84" y="359.72000000000014" as="sourcePoint" />
            <mxPoint x="538.9999999999999" y="359.83000000000004" as="targetPoint" />
          </mxGeometry>
        </mxCell>
        <mxCell id="g6OtUyUmYMgXXQMBs5Dp-5" value="HTTPS" style="text;html=1;strokeColor=none;fillColor=none;align=center;verticalAlign=middle;whiteSpace=wrap;rounded=0;" vertex="1" parent="1">
          <mxGeometry x="480" y="340" width="40" height="20" as="geometry" />
        </mxCell>
        <mxCell id="g6OtUyUmYMgXXQMBs5Dp-9" value="HTTPS" style="text;html=1;strokeColor=none;fillColor=none;align=center;verticalAlign=middle;whiteSpace=wrap;rounded=0;" vertex="1" parent="1">
          <mxGeometry x="500" y="440" width="40" height="20" as="geometry" />
        </mxCell>
        <mxCell id="g6OtUyUmYMgXXQMBs5Dp-10" value="Browser&lt;br&gt;" style="text;html=1;strokeColor=none;fillColor=none;align=center;verticalAlign=middle;whiteSpace=wrap;rounded=0;" vertex="1" parent="1">
          <mxGeometry x="200" y="575" width="40" height="20" as="geometry" />
        </mxCell>
        <mxCell id="g6OtUyUmYMgXXQMBs5Dp-12" value="Show notifications" style="text;html=1;strokeColor=none;fillColor=none;align=center;verticalAlign=middle;whiteSpace=wrap;rounded=0;" vertex="1" parent="1">
          <mxGeometry x="600" y="-20" width="140" height="20" as="geometry" />
        </mxCell>
        <object placeholders="1" c4Type="Database" c4Technology="Redis" c4Description="Blocked notifications database" label="%c4Type%&lt;div&gt;[Container:&amp;nbsp;%c4Technology%]&lt;/div&gt;&lt;br&gt;&lt;div&gt;%c4Description%&lt;/div&gt;" id="g6OtUyUmYMgXXQMBs5Dp-15">
          <mxCell style="shape=cylinder;whiteSpace=wrap;html=1;boundedLbl=1;rounded=0;labelBackgroundColor=none;fillColor=#438DD5;fontSize=9;fontColor=#ffffff;align=center;strokeColor=#3C7FC0;metaEdit=1;points=[[0.5,0,0],[1,0.25,0],[1,0.5,0],[1,0.75,0],[0.5,1,0],[0,0.75,0],[0,0.5,0],[0,0.25,0]];metaData={&quot;c4Type&quot;:{&quot;editable&quot;:false}};" vertex="1" parent="1">
            <mxGeometry x="940" y="740" width="110" height="70" as="geometry" />
          </mxCell>
        </object>
        <object placeholders="1" c4Type="Database" c4Technology="Redis" c4Description="Blocked messages database" label="%c4Type%&lt;div&gt;[Container:&amp;nbsp;%c4Technology%]&lt;/div&gt;&lt;br&gt;&lt;div&gt;%c4Description%&lt;/div&gt;" id="g6OtUyUmYMgXXQMBs5Dp-17">
          <mxCell style="shape=cylinder;whiteSpace=wrap;html=1;boundedLbl=1;rounded=0;labelBackgroundColor=none;fillColor=#438DD5;fontSize=9;fontColor=#ffffff;align=center;strokeColor=#3C7FC0;metaEdit=1;points=[[0.5,0,0],[1,0.25,0],[1,0.5,0],[1,0.75,0],[0.5,1,0],[0,0.75,0],[0,0.5,0],[0,0.25,0]];metaData={&quot;c4Type&quot;:{&quot;editable&quot;:false}};" vertex="1" parent="1">
            <mxGeometry x="790" y="1150" width="110" height="70" as="geometry" />
          </mxCell>
        </object>
        <mxCell id="g6OtUyUmYMgXXQMBs5Dp-24" style="edgeStyle=orthogonalEdgeStyle;rounded=0;orthogonalLoop=1;jettySize=auto;html=1;exitX=1;exitY=0.5;exitDx=0;exitDy=0;entryX=0;entryY=0.5;entryDx=0;entryDy=0;entryPerimeter=0;" edge="1" parent="1" source="g6OtUyUmYMgXXQMBs5Dp-19" target="g6OtUyUmYMgXXQMBs5Dp-23">
          <mxGeometry relative="1" as="geometry" />
        </mxCell>
        <mxCell id="g6OtUyUmYMgXXQMBs5Dp-19" value="Search service" style="rounded=1;whiteSpace=wrap;html=1;fillColor=#dae8fc;strokeColor=#6c8ebf;" vertex="1" parent="1">
          <mxGeometry x="540" y="1260" width="120" height="60" as="geometry" />
        </mxCell>
        <mxCell id="g6OtUyUmYMgXXQMBs5Dp-21" value="" style="endArrow=classic;html=1;fontSize=12;exitX=1.007;exitY=0.049;exitDx=0;exitDy=0;exitPerimeter=0;entryX=0;entryY=0.5;entryDx=0;entryDy=0;" edge="1" parent="1">
          <mxGeometry width="50" height="50" relative="1" as="geometry">
            <mxPoint x="459.84" y="1289.5" as="sourcePoint" />
            <mxPoint x="538.9999999999999" y="1289.6100000000001" as="targetPoint" />
          </mxGeometry>
        </mxCell>
        <mxCell id="g6OtUyUmYMgXXQMBs5Dp-22" value="HTTPS" style="text;html=1;strokeColor=none;fillColor=none;align=center;verticalAlign=middle;whiteSpace=wrap;rounded=0;" vertex="1" parent="1">
          <mxGeometry x="480" y="1270" width="40" height="20" as="geometry" />
        </mxCell>
        <object placeholders="1" c4Type="Database" c4Technology="MongoDB" c4Description="Search database" label="%c4Type%&lt;div&gt;[Container:&amp;nbsp;%c4Technology%]&lt;/div&gt;&lt;br&gt;&lt;div&gt;%c4Description%&lt;/div&gt;" id="g6OtUyUmYMgXXQMBs5Dp-23">
          <mxCell style="shape=cylinder;whiteSpace=wrap;html=1;boundedLbl=1;rounded=0;labelBackgroundColor=none;fillColor=#438DD5;fontSize=9;fontColor=#ffffff;align=center;strokeColor=#3C7FC0;metaEdit=1;points=[[0.5,0,0],[1,0.25,0],[1,0.5,0],[1,0.75,0],[0.5,1,0],[0,0.75,0],[0,0.5,0],[0,0.25,0]];metaData={&quot;c4Type&quot;:{&quot;editable&quot;:false}};" vertex="1" parent="1">
            <mxGeometry x="790" y="1255" width="110" height="70" as="geometry" />
          </mxCell>
        </object>
      </root>
    </mxGraphModel>
  </diagram>
</mxfile>
